<svg xmlns="http://www.w3.org/2000/svg" xmlns:xlink="http://www.w3.org/1999/xlink" viewBox="154 32 137 102"><defs><linearGradient id="b" x1="0" x2="1" y1="0" y2="0" gradientTransform="matrix(1013.58 0 0 -1013.58 1165.46 855.9)" gradientUnits="userSpaceOnUse" spreadMethod="pad"><stop offset="0" stop-color="#dd9f3a"/><stop offset=".14" stop-color="#402218"/><stop offset=".25" stop-color="#88501d"/><stop offset=".36" stop-color="#e7b94f"/><stop offset=".46" stop-color="#f5f577"/><stop offset=".65" stop-color="#a97129"/><stop offset=".81" stop-color="#643c1e"/><stop offset=".92" stop-color="#a27621"/><stop offset="1" stop-color="#613a1d"/></linearGradient><linearGradient id="d" x1="0" x2="1" y1="0" y2="0" gradientTransform="matrix(698.221 0 0 -698.221 1401.47 794.27)" gradientUnits="userSpaceOnUse" spreadMethod="pad"><stop offset="0" stop-color="#dd9f3a"/><stop offset=".14" stop-color="#402218"/><stop offset=".25" stop-color="#88501d"/><stop offset=".36" stop-color="#e7b94f"/><stop offset=".46" stop-color="#f5f577"/><stop offset=".65" stop-color="#a97129"/><stop offset=".81" stop-color="#643c1e"/><stop offset=".92" stop-color="#a27621"/><stop offset="1" stop-color="#613a1d"/></linearGradient><linearGradient id="f" x1="0" x2="1" y1="0" y2="0" gradientTransform="matrix(31.291 0 0 -31.291 1305.45 971.3)" gradientUnits="userSpaceOnUse" spreadMethod="pad"><stop offset="0" stop-color="#dd9f3a"/><stop offset=".14" stop-color="#402218"/><stop offset=".25" stop-color="#88501d"/><stop offset=".36" stop-color="#e7b94f"/><stop offset=".46" stop-color="#f5f577"/><stop offset=".65" stop-color="#a97129"/><stop offset=".81" stop-color="#643c1e"/><stop offset=".92" stop-color="#a27621"/><stop offset="1" stop-color="#613a1d"/></linearGradient><linearGradient id="h" x1="0" x2="1" y1="0" y2="0" gradientTransform="matrix(290.823 0 0 -290.823 1246.55 1075.76)" gradientUnits="userSpaceOnUse" spreadMethod="pad"><stop offset="0" stop-color="#dd9f3a"/><stop offset=".14" stop-color="#402218"/><stop offset=".25" stop-color="#88501d"/><stop offset=".36" stop-color="#e7b94f"/><stop offset=".46" stop-color="#f5f577"/><stop offset=".65" stop-color="#a97129"/><stop offset=".81" stop-color="#643c1e"/><stop offset=".92" stop-color="#a27621"/><stop offset="1" stop-color="#613a1d"/></linearGradient><linearGradient id="j" x1="0" x2="1" y1="0" y2="0" gradientTransform="matrix(22.497 0 0 -22.497 1391.96 1029.08)" gradientUnits="userSpaceOnUse" spreadMethod="pad"><stop offset="0" stop-color="#dd9f3a"/><stop offset=".14" stop-color="#402218"/><stop offset=".25" stop-color="#88501d"/><stop offset=".36" stop-color="#e7b94f"/><stop offset=".46" stop-color="#f5f577"/><stop offset=".65" stop-color="#a97129"/><stop offset=".81" stop-color="#643c1e"/><stop offset=".92" stop-color="#a27621"/><stop offset="1" stop-color="#613a1d"/></linearGradient><linearGradient id="l" x1="0" x2="1" y1="0" y2="0" gradientTransform="matrix(22.497 0 0 -22.497 1421.01 1029.08)" gradientUnits="userSpaceOnUse" spreadMethod="pad"><stop offset="0" stop-color="#dd9f3a"/><stop offset=".14" stop-color="#402218"/><stop offset=".25" stop-color="#88501d"/><stop offset=".36" stop-color="#e7b94f"/><stop offset=".46" stop-color="#f5f577"/><stop offset=".65" stop-color="#a97129"/><stop offset=".81" stop-color="#643c1e"/><stop offset=".92" stop-color="#a27621"/><stop offset="1" stop-color="#613a1d"/></linearGradient><linearGradient id="n" x1="0" x2="1" y1="0" y2="0" gradientTransform="matrix(22.497 0 0 -22.497 1391.96 1003.51)" gradientUnits="userSpaceOnUse" spreadMethod="pad"><stop offset="0" stop-color="#dd9f3a"/><stop offset=".14" stop-color="#402218"/><stop offset=".25" stop-color="#88501d"/><stop offset=".36" stop-color="#e7b94f"/><stop offset=".46" stop-color="#f5f577"/><stop offset=".65" stop-color="#a97129"/><stop offset=".81" stop-color="#643c1e"/><stop offset=".92" stop-color="#a27621"/><stop offset="1" stop-color="#613a1d"/></linearGradient><linearGradient id="p" x1="0" x2="1" y1="0" y2="0" gradientTransform="matrix(22.497 0 0 -22.497 1421.01 1003.51)" gradientUnits="userSpaceOnUse" spreadMethod="pad"><stop offset="0" stop-color="#dd9f3a"/><stop offset=".14" stop-color="#402218"/><stop offset=".25" stop-color="#88501d"/><stop offset=".36" stop-color="#e7b94f"/><stop offset=".46" stop-color="#f5f577"/><stop offset=".65" stop-color="#a97129"/><stop offset=".81" stop-color="#643c1e"/><stop offset=".92" stop-color="#a27621"/><stop offset="1" stop-color="#613a1d"/></linearGradient><linearGradient id="r" x1="0" x2="1" y1="0" y2="0" gradientTransform="matrix(22.497 0 0 -22.497 1890.98 1000.55)" gradientUnits="userSpaceOnUse" spreadMethod="pad"><stop offset="0" stop-color="#dd9f3a"/><stop offset=".14" stop-color="#402218"/><stop offset=".25" stop-color="#88501d"/><stop offset=".36" stop-color="#e7b94f"/><stop offset=".46" stop-color="#f5f577"/><stop offset=".65" stop-color="#a97129"/><stop offset=".81" stop-color="#643c1e"/><stop offset=".92" stop-color="#a27621"/><stop offset="1" stop-color="#613a1d"/></linearGradient><linearGradient id="t" x1="0" x2="1" y1="0" y2="0" gradientTransform="matrix(22.497 0 0 -22.497 1920.03 1000.55)" gradientUnits="userSpaceOnUse" spreadMethod="pad"><stop offset="0" stop-color="#dd9f3a"/><stop offset=".14" stop-color="#402218"/><stop offset=".25" stop-color="#88501d"/><stop offset=".36" stop-color="#e7b94f"/><stop offset=".46" stop-color="#f5f577"/><stop offset=".65" stop-color="#a97129"/><stop offset=".81" stop-color="#643c1e"/><stop offset=".92" stop-color="#a27621"/><stop offset="1" stop-color="#613a1d"/></linearGradient><linearGradient id="v" x1="0" x2="1" y1="0" y2="0" gradientTransform="matrix(22.497 0 0 -22.497 1890.98 974.98)" gradientUnits="userSpaceOnUse" spreadMethod="pad"><stop offset="0" stop-color="#dd9f3a"/><stop offset=".14" stop-color="#402218"/><stop offset=".25" stop-color="#88501d"/><stop offset=".36" stop-color="#e7b94f"/><stop offset=".46" stop-color="#f5f577"/><stop offset=".65" stop-color="#a97129"/><stop offset=".81" stop-color="#643c1e"/><stop offset=".92" stop-color="#a27621"/><stop offset="1" stop-color="#613a1d"/></linearGradient><linearGradient id="x" x1="0" x2="1" y1="0" y2="0" gradientTransform="matrix(22.497 0 0 -22.497 1920.03 974.98)" gradientUnits="userSpaceOnUse" spreadMethod="pad"><stop offset="0" stop-color="#dd9f3a"/><stop offset=".14" stop-color="#402218"/><stop offset=".25" stop-color="#88501d"/><stop offset=".36" stop-color="#e7b94f"/><stop offset=".46" stop-color="#f5f577"/><stop offset=".65" stop-color="#a97129"/><stop offset=".81" stop-color="#643c1e"/><stop offset=".92" stop-color="#a27621"/><stop offset="1" stop-color="#613a1d"/></linearGradient><linearGradient id="z" x1="0" x2="1" y1="0" y2="0" gradientTransform="matrix(35.23 0 0 -35.23 1625.74 1131.51)" gradientUnits="userSpaceOnUse" spreadMethod="pad"><stop offset="0" stop-color="#dd9f3a"/><stop offset=".14" stop-color="#402218"/><stop offset=".25" stop-color="#88501d"/><stop offset=".36" stop-color="#e7b94f"/><stop offset=".46" stop-color="#f5f577"/><stop offset=".65" stop-color="#a97129"/><stop offset=".81" stop-color="#643c1e"/><stop offset=".92" stop-color="#a27621"/><stop offset="1" stop-color="#613a1d"/></linearGradient><linearGradient id="B" x1="0" x2="1" y1="0" y2="0" gradientTransform="matrix(35.229 0 0 -35.229 1671.22 1131.51)" gradientUnits="userSpaceOnUse" spreadMethod="pad"><stop offset="0" stop-color="#dd9f3a"/><stop offset=".14" stop-color="#402218"/><stop offset=".25" stop-color="#88501d"/><stop offset=".36" stop-color="#e7b94f"/><stop offset=".46" stop-color="#f5f577"/><stop offset=".65" stop-color="#a97129"/><stop offset=".81" stop-color="#643c1e"/><stop offset=".92" stop-color="#a27621"/><stop offset="1" stop-color="#613a1d"/></linearGradient><linearGradient id="D" x1="0" x2="1" y1="0" y2="0" gradientTransform="matrix(35.23 0 0 -35.23 1625.74 1091.48)" gradientUnits="userSpaceOnUse" spreadMethod="pad"><stop offset="0" stop-color="#dd9f3a"/><stop offset=".14" stop-color="#402218"/><stop offset=".25" stop-color="#88501d"/><stop offset=".36" stop-color="#e7b94f"/><stop offset=".46" stop-color="#f5f577"/><stop offset=".65" stop-color="#a97129"/><stop offset=".81" stop-color="#643c1e"/><stop offset=".92" stop-color="#a27621"/><stop offset="1" stop-color="#613a1d"/></linearGradient><linearGradient id="F" x1="0" x2="1" y1="0" y2="0" gradientTransform="matrix(35.229 0 0 -35.229 1671.22 1091.48)" gradientUnits="userSpaceOnUse" spreadMethod="pad"><stop offset="0" stop-color="#dd9f3a"/><stop offset=".14" stop-color="#402218"/><stop offset=".25" stop-color="#88501d"/><stop offset=".36" stop-color="#e7b94f"/><stop offset=".46" stop-color="#f5f577"/><stop offset=".65" stop-color="#a97129"/><stop offset=".81" stop-color="#643c1e"/><stop offset=".92" stop-color="#a27621"/><stop offset="1" stop-color="#613a1d"/></linearGradient><linearGradient id="H" x1="0" x2="1" y1="0" y2="0" gradientTransform="matrix(283.87 0 0 -283.87 1802.74 1025.65)" gradientUnits="userSpaceOnUse" spreadMethod="pad"><stop offset="0" stop-color="#dd9f3a"/><stop offset=".14" stop-color="#402218"/><stop offset=".25" stop-color="#88501d"/><stop offset=".36" stop-color="#e7b94f"/><stop offset=".46" stop-color="#f5f577"/><stop offset=".65" stop-color="#a97129"/><stop offset=".81" stop-color="#643c1e"/><stop offset=".92" stop-color="#a27621"/><stop offset="1" stop-color="#613a1d"/></linearGradient><linearGradient id="J" x1="0" x2="1" y1="0" y2="0" gradientTransform="matrix(537.879 0 0 -537.879 1396.97 1220.91)" gradientUnits="userSpaceOnUse" spreadMethod="pad"><stop offset="0" stop-color="#dd9f3a"/><stop offset=".14" stop-color="#402218"/><stop offset=".25" stop-color="#88501d"/><stop offset=".36" stop-color="#e7b94f"/><stop offset=".46" stop-color="#f5f577"/><stop offset=".65" stop-color="#a97129"/><stop offset=".81" stop-color="#643c1e"/><stop offset=".92" stop-color="#a27621"/><stop offset="1" stop-color="#613a1d"/></linearGradient><clipPath id="a" clipPathUnits="userSpaceOnUse"><use xlink:href="#reuse-0"/></clipPath><clipPath id="c" clipPathUnits="userSpaceOnUse"><path d="M1401.47 878.96s150.33 15.96 341.75-119.03c191.43-134.98 356.47 20.25 356.47 20.25s-116.57-82.21-255.23-27c0 0-41.72 7.98-99.4 52.16-57.67 44.17-120.87 64.36-184.06 74.2-20.27 3.16-43.94 4.23-66.74 4.23-48.33 0-92.79-4.8-92.79-4.8"/></clipPath><clipPath id="e" clipPathUnits="userSpaceOnUse"><path d="M1305.45 993.38v-65.95l31.29 17.18v70.56z"/></clipPath><clipPath id="g" clipPathUnits="userSpaceOnUse"><use xlink:href="#reuse-1"/></clipPath><clipPath id="i" clipPathUnits="userSpaceOnUse"><path d="M1391.97 1017.83h22.5v22.5h-22.5Z"/></clipPath><clipPath id="k" clipPathUnits="userSpaceOnUse"><path d="M1421 1017.83h22.5v22.5H1421Z"/></clipPath><clipPath id="m" clipPathUnits="userSpaceOnUse"><path d="M1391.97 992.27h22.5v22.5h-22.5Z"/></clipPath><clipPath id="o" clipPathUnits="userSpaceOnUse"><path d="M1421 992.27h22.5v22.5H1421Z"/></clipPath><clipPath id="q" clipPathUnits="userSpaceOnUse"><path d="M1890.98 989.3h22.5v22.5h-22.5z"/></clipPath><clipPath id="s" clipPathUnits="userSpaceOnUse"><path d="M1920.02 989.3h22.5v22.5h-22.5z"/></clipPath><clipPath id="u" clipPathUnits="userSpaceOnUse"><path d="M1890.98 963.73h22.5v22.5h-22.5z"/></clipPath><clipPath id="w" clipPathUnits="userSpaceOnUse"><path d="M1920.02 963.73h22.5v22.5h-22.5z"/></clipPath><clipPath id="y" clipPathUnits="userSpaceOnUse"><path d="M1625.74 1113.9h35.23v35.23h-35.23Z"/></clipPath><clipPath id="A" clipPathUnits="userSpaceOnUse"><path d="M1671.22 1113.9h35.23v35.23h-35.23Z"/></clipPath><clipPath id="C" clipPathUnits="userSpaceOnUse"><path d="M1625.74 1073.86h35.23v35.23h-35.23Z"/></clipPath><clipPath id="E" clipPathUnits="userSpaceOnUse"><path d="M1671.22 1073.86h35.23v35.23h-35.23Z"/></clipPath><clipPath id="G" clipPathUnits="userSpaceOnUse"><use xlink:href="#reuse-2"/></clipPath><clipPath id="I" clipPathUnits="userSpaceOnUse"><use xlink:href="#reuse-3"/></clipPath><path id="reuse-0" d="M1514.77 969.22c-203.7-7.7-349.31-227.08-349.31-227.08 162.8 189.79 362.41 168.52 362.41 168.52s120.25-4.91 225.78-77.72c105.53-72.8 172.61-64.62 172.61-64.62 156.91-17.04 234.9 66.93 252.78 89.43-8.97-6.02-32.76-18.65-93.25-45.26-115.35-50.72-265.87 63.81-265.87 63.81s-94.12 93.33-283.03 93.34q-10.86 0-22.12-.42"/><path id="reuse-1" d="M1491.67 1133.59v-67.8l-73.63 39.27-84.37-51.55v37.13h-28.22v-53.99l-58.9-37.74v-12.57l48.47 1.83v13.81l118.11 74.85 80.99-44.33V994h43.25v171.19z"/><path id="reuse-2" d="m1802.74 922.1 46.22-35.98v134.98l64.52 47.04 118.72-65.45V989.3h54.4v13.8l-60.12 35.59V1098l-26.99-10.22v-40.09l-86.01 55.63-70.25-43.77v82.22l-40.49 23.42z"/><path id="reuse-3" d="M1396.97 1140.53v-12.26h81.41v18.4l186.11 116.17 192.24-111.25v-13.5l-.82-2.46 78.95 2.46v16.36l-90.4 53.99v91.62h-46.63v-63.81l-136.86 77.31z"/></defs><use xlink:href="#reuse-0"/><path d="M1401.47 878.96s150.33 15.96 341.75-119.03c191.43-134.98 356.47 20.25 356.47 20.25s-116.57-82.21-255.23-27c0 0-41.72 7.98-99.4 52.16-57.67 44.17-120.87 64.36-184.06 74.2-20.27 3.16-43.94 4.23-66.74 4.23-48.33 0-92.79-4.8-92.79-4.8M1305.45 993.38v-65.95l31.29 17.18v70.56z"/><use xlink:href="#reuse-1"/><path d="M1391.97 1017.83h22.5v22.5h-22.5ZM1421 1017.83h22.5v22.5H1421ZM1391.97 992.27h22.5v22.5h-22.5ZM1421 992.27h22.5v22.5H1421ZM1890.98 989.3h22.5v22.5h-22.5zM1920.02 989.3h22.5v22.5h-22.5zM1890.98 963.73h22.5v22.5h-22.5zM1920.02 963.73h22.5v22.5h-22.5zM1625.74 1113.9h35.23v35.23h-35.23ZM1671.22 1113.9h35.23v35.23h-35.23ZM1625.74 1073.86h35.23v35.23h-35.23ZM1671.22 1073.86h35.23v35.23h-35.23Z"/><use xlink:href="#reuse-2"/><use xlink:href="#reuse-3"/><path fill="url(#b)" d="M1514.77 969.22c-203.7-7.7-349.31-227.08-349.31-227.08 162.8 189.79 362.41 168.52 362.41 168.52s120.25-4.91 225.78-77.72c105.53-72.8 172.61-64.62 172.61-64.62 156.91-17.04 234.9 66.93 252.78 89.43-8.97-6.02-32.76-18.65-93.25-45.26-115.35-50.72-265.87 63.81-265.87 63.81s-94.12 93.33-283.03 93.34q-10.86 0-22.12-.42" clip-path="url(#a)" transform="matrix(.133 0 0 -.133 0 207.87)"/><path fill="url(#d)" d="M1401.47 878.96s150.33 15.96 341.75-119.03c191.43-134.98 356.47 20.25 356.47 20.25s-116.57-82.21-255.23-27c0 0-41.72 7.98-99.4 52.16-57.67 44.17-120.87 64.36-184.06 74.2-20.27 3.16-43.94 4.23-66.74 4.23-48.33 0-92.79-4.8-92.79-4.8" clip-path="url(#c)" transform="matrix(.133 0 0 -.133 0 207.87)"/><path fill="url(#f)" d="M1305.45 993.38v-65.95l31.29 17.18v70.56z" clip-path="url(#e)" transform="matrix(.133 0 0 -.133 0 207.87)"/><path fill="url(#h)" d="M1491.67 1133.59v-67.8l-73.63 39.27-84.37-51.55v37.13h-28.22v-53.99l-58.9-37.74v-12.57l48.47 1.83v13.81l118.11 74.85 80.99-44.33V994h43.25v171.19" clip-path="url(#g)" transform="matrix(.133 0 0 -.133 0 207.87)"/><path fill="url(#j)" d="M1391.97 1017.83h22.5v22.5h-22.5Z" clip-path="url(#i)" transform="matrix(.133 0 0 -.133 0 207.87)"/><path fill="url(#l)" d="M1421 1017.83h22.5v22.5H1421Z" clip-path="url(#k)" transform="matrix(.133 0 0 -.133 0 207.87)"/><path fill="url(#n)" d="M1391.97 992.27h22.5v22.5h-22.5Z" clip-path="url(#m)" transform="matrix(.133 0 0 -.133 0 207.87)"/><path fill="url(#p)" d="M1421 992.27h22.5v22.5H1421Z" clip-path="url(#o)" transform="matrix(.133 0 0 -.133 0 207.87)"/><path fill="url(#r)" d="M1890.98 989.3h22.5v22.5h-22.5z" clip-path="url(#q)" transform="matrix(.133 0 0 -.133 0 207.87)"/><path fill="url(#t)" d="M1920.02 989.3h22.5v22.5h-22.5z" clip-path="url(#s)" transform="matrix(.133 0 0 -.133 0 207.87)"/><path fill="url(#v)" d="M1890.98 963.73h22.5v22.5h-22.5z" clip-path="url(#u)" transform="matrix(.133 0 0 -.133 0 207.87)"/><path fill="url(#x)" d="M1920.02 963.73h22.5v22.5h-22.5z" clip-path="url(#w)" transform="matrix(.133 0 0 -.133 0 207.87)"/><path fill="url(#z)" d="M1625.74 1113.9h35.23v35.23h-35.23Z" clip-path="url(#y)" transform="matrix(.133 0 0 -.133 0 207.87)"/><path fill="url(#B)" d="M1671.22 1113.9h35.23v35.23h-35.23Z" clip-path="url(#A)" transform="matrix(.133 0 0 -.133 0 207.87)"/><path fill="url(#D)" d="M1625.74 1073.86h35.23v35.23h-35.23Z" clip-path="url(#C)" transform="matrix(.133 0 0 -.133 0 207.87)"/><path fill="url(#F)" d="M1671.22 1073.86h35.23v35.23h-35.23Z" clip-path="url(#E)" transform="matrix(.133 0 0 -.133 0 207.87)"/><path fill="url(#H)" d="m1802.74 922.1 46.22-35.98v134.98l64.52 47.04 118.72-65.45V989.3h54.4v13.8l-60.12 35.59V1098l-26.99-10.22v-40.09l-86.01 55.63-70.25-43.77v82.22l-40.49 23.42" clip-path="url(#G)" transform="matrix(.133 0 0 -.133 0 207.87)"/><path fill="url(#J)" d="M1396.97 1140.53v-12.26h81.41v18.4l186.11 116.17 192.24-111.25v-13.5l-.82-2.46 78.95 2.46v16.36l-90.4 53.99v91.62h-46.63v-63.81l-136.86 77.31" clip-path="url(#I)" transform="matrix(.133 0 0 -.133 0 207.87)"/><g font-family='Arial, Helvetica, sans-serif' text-anchor='middle' fill='#fff'><text x='194' y='112' font-size='13' font-weight='700'>ALI Matar</text><text x='222.5' y='121' font-size='7.2' font-weight='600' letter-spacing='.4' textLength='128' lengthAdjust='spacingAndGlyphs'>Construction Company LTD</text></g></svg>
